<?xml version="1.0" encoding="utf-8"?><svg xmlns="http://www.w3.org/2000/svg" xmlns:xlink="http://www.w3.org/1999/xlink"><symbol viewBox="0 0 45 33" id="mail" xmlns="http://www.w3.org/2000/svg"><defs><style>.acls-1{fill:#0d3e7e;fill-rule:evenodd;opacity:.7}</style></defs><path id="aForma_1" data-name="Forma 1" class="acls-1" d="M1020.35 4694h-43.7a.656.656 0 0 0-.66.66v31.68a.656.656 0 0 0 .66.66h43.7a.659.659 0 0 0 .66-.66v-31.68a.659.659 0 0 0-.66-.66zm-.66 31.68h-42.38v-30.36h42.38v30.36zm-1.52-2.45l-13.25-12.73 13.25-12.73a.661.661 0 0 0 .02-.93.673.673 0 0 0-.94-.02l-13.67 13.14a.727.727 0 0 0-.09.08.236.236 0 0 1-.05.05l-1.6 1.55a4.843 4.843 0 0 1-6.678 0l-1.6-1.55a.288.288 0 0 1-.045-.05c-.029-.03-.06-.05-.092-.08l-13.677-13.14a.664.664 0 0 0-.932.02.656.656 0 0 0 .019.93l13.248 12.73-13.248 12.73a.656.656 0 0 0-.019.93.673.673 0 0 0 .476.2.665.665 0 0 0 .456-.18l13.287-12.76 1.215 1.17a6.166 6.166 0 0 0 8.5 0l1.22-1.17 13.29 12.76a.644.644 0 0 0 .45.18.691.691 0 0 0 .48-.2.661.661 0 0 0-.02-.93z" transform="translate(-976 -4694)"/></symbol><symbol viewBox="0 0 47.844 48" id="phone" xmlns="http://www.w3.org/2000/svg"><defs><style>.bcls-1{fill:#0d3e7e;fill-rule:evenodd;opacity:.7}</style></defs><path id="bForma_1_копия_2" data-name="Forma 1 копия 2" class="bcls-1" d="M710.323 4685h-20.072a3.521 3.521 0 0 0-3.51 3.52v40.95a3.523 3.523 0 0 0 3.51 3.53h20.071a3.52 3.52 0 0 0 3.511-3.52v-40.96a3.52 3.52 0 0 0-3.51-3.52zm-21.988 6.4h23.9v30.4h-23.9v-30.4zm1.916-4.8h20.071a1.919 1.919 0 0 1 1.917 1.92v1.28h-23.9v-1.28a1.92 1.92 0 0 1 1.912-1.92zm20.072 44.8h-20.072a1.92 1.92 0 0 1-1.916-1.92v-6.08h23.9v6.08a1.919 1.919 0 0 1-1.912 1.92zm-10.036-7.2a3.2 3.2 0 1 0 3.187 3.2 3.193 3.193 0 0 0-3.187-3.2zm0 4.8a1.6 1.6 0 1 1 1.594-1.6 1.6 1.6 0 0 1-1.594 1.6zm-3.187-40h3.187a.8.8 0 0 0 0-1.6H697.1a.8.8 0 0 0 0 1.6zm5.578 0h.8a.8.8 0 0 0 0-1.6h-.8a.8.8 0 0 0 0 1.6zm18.814-.35a.8.8 0 0 0-1.127 0 .813.813 0 0 0 0 1.14 7.7 7.7 0 0 1 0 10.84.8.8 0 0 0 0 1.13.805.805 0 0 0 1.127 0 9.311 9.311 0 0 0 0-13.11zm-3.356 1.83a.78.78 0 0 0-1.126 0 .8.8 0 0 0 0 1.13 5.268 5.268 0 0 1 0 7.42.8.8 0 0 0 0 1.13.8.8 0 0 0 1.126 0 6.866 6.866 0 0 0 0-9.68zm-37.927-.69a.813.813 0 0 0 0-1.14.8.8 0 0 0-1.127 0 9.311 9.311 0 0 0 0 13.11.805.805 0 0 0 1.127 0 .8.8 0 0 0 0-1.13 7.693 7.693 0 0 1 0-10.84zm3.355.46a.8.8 0 0 0-1.126 0 6.878 6.878 0 0 0 0 9.69.8.8 0 0 0 1.126 0 .8.8 0 0 0 0-1.13 5.268 5.268 0 0 1 0-7.42.813.813 0 0 0 0-1.14z" transform="translate(-676.375 -4685)"/></symbol><symbol viewBox="0 0 48 48" id="point" xmlns="http://www.w3.org/2000/svg"><defs><style>.ccls-1{fill:#0d3e7e;fill-rule:evenodd;opacity:.7}</style></defs><path id="cForma_1_копия" data-name="Forma 1 копия" class="ccls-1" d="M397.687 4705.8a5.6 5.6 0 1 0-5.6-5.6 5.6 5.6 0 0 0 5.6 5.6zm0-9.6a4 4 0 1 1-4 4 4 4 0 0 1 4-4zm-.141 32.6l12.273-17.72c4.6-6.14 3.937-16.22-1.425-21.59a15.35 15.35 0 0 0-21.7 0c-5.363 5.36-6.028 15.45-1.443 21.56zm-9.717-38.18a13.754 13.754 0 0 1 19.434 0c4.84 4.84 5.436 13.95 1.258 19.52l-10.975 15.85-10.993-15.87c-4.16-5.55-3.563-14.66 1.276-19.5zm19.552 28.78a.806.806 0 0 0-.888.71.8.8 0 0 0 .7.88c8.413.99 12.893 3.66 12.893 5.21 0 2.17-8.521 5.2-22.4 5.2s-22.4-3.03-22.4-5.2c0-1.55 4.481-4.22 12.894-5.21a.8.8 0 0 0 .7-.88.807.807 0 0 0-.888-.71c-8.423 1-14.307 3.79-14.307 6.8 0 3.38 8.244 6.8 24 6.8s24-3.42 24-6.8c.002-3.01-5.885-5.8-14.304-6.8z" transform="translate(-373.688 -4685)"/></symbol><symbol viewBox="0 0 49 28" id="vk" xmlns="http://www.w3.org/2000/svg"><defs><style>.dcls-1{fill:#0d3e7e;fill-rule:evenodd;opacity:.7}</style></defs><path id="dФигура_19_копия" data-name="Фигура 19 копия" class="dcls-1" d="M1299.16 4723a18.039 18.039 0 0 1-9.09-2.23 22.282 22.282 0 0 1-6.89-6.39 82.937 82.937 0 0 1-8.89-15.71 2.016 2.016 0 0 1-.07-1.96 2.06 2.06 0 0 1 1.82-.78c2.18-.04 4.42-.04 6.84 0a2.565 2.565 0 0 1 2.43 1.77 40.787 40.787 0 0 0 4.56 8.38 6.759 6.759 0 0 0 1.59 1.75.761.761 0 0 0 .57.2.75.75 0 0 0 .36-.47 5.049 5.049 0 0 0 .36-1.6 25.421 25.421 0 0 0-.11-6.11 2.03 2.03 0 0 0-1.76-1.89.938.938 0 0 1-.59-1.7 3.107 3.107 0 0 1 2.59-1.26h7.93l.06.01c1.56.3 1.96 1.12 2.15 2.52l.01.08.01 8.67a2.067 2.067 0 0 0 .71 1.67.948.948 0 0 0 .87-.53l.08-.08a26.456 26.456 0 0 0 4.33-6.62c.5-.99.93-2.01 1.42-3.24a2.3 2.3 0 0 1 2.34-1.58l7.57.01a5.229 5.229 0 0 1 .77.05 2.328 2.328 0 0 1 1.65.89 2.281 2.281 0 0 1 .04 1.86 18.4 18.4 0 0 1-2.96 5.16l-.14.18c-.59.82-1.21 1.63-1.81 2.42-.68.89-1.39 1.81-2.05 2.73-.98 1.36-.93 1.83.3 3.02.42.41.85.81 1.26 1.2a41.1 41.1 0 0 1 3.46 3.52 13.951 13.951 0 0 1 1.75 2.5 2.644 2.644 0 0 1 .03 2.53 1.936 1.936 0 0 1-1.57 1h-6.98a5.925 5.925 0 0 1-4.88-1.96c-.67-.67-1.31-1.38-1.92-2.07-.3-.32-.59-.65-.88-.97a6.276 6.276 0 0 0-1.14-1 1.175 1.175 0 0 0-.86-.24 1.073 1.073 0 0 0-.63.58 6.683 6.683 0 0 0-.66 2.98c-.08 1.89-.81 2.59-2.78 2.68q-.615.03-1.2.03zm-19.71-25.93q-1.725 0-3.39.03a1.105 1.105 0 0 0-.84.23 1.051 1.051 0 0 0 .15.86 81.6 81.6 0 0 0 8.76 15.5 21.034 21.034 0 0 0 6.53 6.06 17.271 17.271 0 0 0 9.65 2.05c1.38-.06 1.6-.27 1.66-1.57a7.763 7.763 0 0 1 .8-3.48 2.218 2.218 0 0 1 1.37-1.16 2.286 2.286 0 0 1 1.79.4 7.133 7.133 0 0 1 1.37 1.2c.3.32.59.65.89.97.6.68 1.23 1.38 1.88 2.03a4.8 4.8 0 0 0 3.96 1.61h7a.76.76 0 0 0 .61-.4 1.526 1.526 0 0 0-.05-1.42 13.229 13.229 0 0 0-1.61-2.29 38.85 38.85 0 0 0-3.37-3.42c-.42-.39-.85-.8-1.27-1.21-1.64-1.58-1.75-2.73-.44-4.54.67-.93 1.38-1.86 2.07-2.76.6-.78 1.21-1.59 1.8-2.39l.13-.18a17.365 17.365 0 0 0 2.8-4.83 1.272 1.272 0 0 0 .07-.9 1.215 1.215 0 0 0-.84-.35 3.445 3.445 0 0 0-.57-.03l-7.58-.01a1.125 1.125 0 0 0-1.23.84c-.51 1.26-.95 2.31-1.46 3.33a27.646 27.646 0 0 1-4.53 6.9l-.08.08a2.014 2.014 0 0 1-2.11.84l-.02-.01c-1.16-.43-1.51-2.09-1.49-2.78l-.01-8.62c-.15-1.07-.33-1.31-1.15-1.48h-7.82a1.829 1.829 0 0 0-1.55.69 3.21 3.21 0 0 1 2.48 2.82 26.657 26.657 0 0 1 .11 6.38 6.449 6.449 0 0 1-.44 1.96 1.647 1.647 0 0 1-2.68.78 7.92 7.92 0 0 1-1.9-2.05 41.749 41.749 0 0 1-4.68-8.61 1.408 1.408 0 0 0-1.36-1.04c-1.17-.02-2.3-.03-3.41-.03z" transform="translate(-1274 -4695)"/></symbol></svg>