<?xml version="1.0" encoding="utf-8"?><svg xmlns="http://www.w3.org/2000/svg" xmlns:xlink="http://www.w3.org/1999/xlink"><symbol viewBox="0 0 451.846 451.847" id="arrow" xmlns="http://www.w3.org/2000/svg"><path d="M203.554 345.441L9.273 151.154c-12.365-12.359-12.365-32.397 0-44.75 12.354-12.354 32.391-12.354 44.744 0l171.909 171.914L397.829 106.41c12.359-12.354 32.394-12.354 44.748 0 12.359 12.354 12.359 32.391 0 44.75L248.293 345.446c-6.18 6.177-14.271 9.262-22.366 9.262-8.099 0-16.196-3.09-22.373-9.267z" data-original="#000000" class="aactive-path"/></symbol><symbol viewBox="0 0 85 65" id="camera" xmlns="http://www.w3.org/2000/svg"><defs><style>.bcls-1{fill:#be6563;fill-rule:evenodd;filter:url(#bfilter)}</style><filter id="bfilter" x="917" y="7487" width="85" height="65" filterUnits="userSpaceOnUse"><feFlood result="flood" flood-color="#be6563"/><feComposite result="composite" operator="in" in2="SourceGraphic"/><feBlend result="blend" in2="SourceGraphic"/></filter></defs><path id="bForma_1" data-name="Forma 1" class="bcls-1" d="M993.7 7513a1.625 1.625 0 1 0 1.66 1.62 1.644 1.644 0 0 0-1.66-1.62zm-68.4 0a1.625 1.625 0 1 0 1.66 1.62 1.643 1.643 0 0 0-1.66-1.62zm71.718-26H955.4a5.076 5.076 0 0 0-3.6 1.5l-7.583 7.75a1.689 1.689 0 0 1-1.2.5h-1.78v-4.88a1.643 1.643 0 0 0-1.66-1.62H925.3a1.643 1.643 0 0 0-1.66 1.62v4.88a6.582 6.582 0 0 0-6.641 6.5v42.25a6.582 6.582 0 0 0 6.641 6.5h71.718a6.582 6.582 0 0 0 6.641-6.5v-53.63a4.935 4.935 0 0 0-4.98-4.87zm-70.058 6.5h10.957v3.25h-10.956v-3.25zm-6.641 16.25h23.612a20.79 20.79 0 0 0 0 29.25H920.32v-29.25zm28.765-.06a18.6 18.6 0 0 1 20.83 0 17.665 17.665 0 0 1 0 29.37 18.6 18.6 0 0 1-20.831 0 17.665 17.665 0 0 1 .002-29.37zm49.595 35.81a3.291 3.291 0 0 1-3.321 3.25h-71.717a3.291 3.291 0 0 1-3.321-3.25v-3.25H948a21.985 21.985 0 0 0 23.008 0h27.672v3.25zm0-6.5h-23.611a20.79 20.79 0 0 0 0-29.25h23.612V7539zm0-32.5H971a21.985 21.985 0 0 0-23.008 0H920.32v-3.25a3.291 3.291 0 0 1 3.321-3.25h19.377a5.089 5.089 0 0 0 3.6-1.5l7.584-7.75a1.68 1.68 0 0 1 1.2-.5h41.621a1.645 1.645 0 0 1 1.661 1.62v14.63zm-4.981-13h-14.276a1.643 1.643 0 0 0-1.66 1.62v6.5a1.645 1.645 0 0 0 1.66 1.63H993.7a1.645 1.645 0 0 0 1.66-1.63v-6.5a1.643 1.643 0 0 0-1.66-1.62zm-1.66 6.5h-10.956v-3.25h10.957v3.25zm1.66 19.5a1.643 1.643 0 0 0-1.66 1.62v13a1.66 1.66 0 0 0 3.32 0v-13a1.643 1.643 0 0 0-1.658-1.62zm-68.4 0a1.643 1.643 0 0 0-1.66 1.62v13a1.66 1.66 0 0 0 3.32 0v-13a1.643 1.643 0 0 0-1.658-1.62zm34.2-6.5a11.378 11.378 0 1 0 11.621 11.37A11.51 11.51 0 0 0 959.5 7513zm0 19.5a8.127 8.127 0 1 1 8.3-8.13 8.228 8.228 0 0 1-8.298 8.13z" transform="translate(-917 -7487)"/></symbol><symbol viewBox="0 0 69 83" id="diamond" xmlns="http://www.w3.org/2000/svg"><defs><style>.ccls-1{fill:#be6563;fill-rule:evenodd}</style></defs><path id="cForma_1" data-name="Forma 1" class="ccls-1" d="M588.036 7471.44a1.649 1.649 0 0 0-2.245.59 1.616 1.616 0 0 0 .6 2.22 1.651 1.651 0 0 0 2.244-.6 1.607 1.607 0 0 0-.599-2.21zM567.5 7466a1.625 1.625 0 1 0 1.643 1.62 1.635 1.635 0 0 0-1.643-1.62zm0 43.18a1.625 1.625 0 1 0 1.643 1.62 1.635 1.635 0 0 0-1.643-1.62zm-18.292-37.15a1.647 1.647 0 0 0-2.244-.59 1.607 1.607 0 0 0-.6 2.21 1.651 1.651 0 0 0 2.244.6 1.616 1.616 0 0 0 .6-2.22zm18.292.46a1.637 1.637 0 0 0-1.643 1.63v6.49a1.643 1.643 0 0 0 3.286 0v-6.49a1.637 1.637 0 0 0-1.643-1.63zm-11.72 10.79l-3.286-5.63a1.656 1.656 0 0 0-2.244-.59 1.615 1.615 0 0 0-.6 2.22l3.285 5.62a1.648 1.648 0 0 0 1.425.81 1.728 1.728 0 0 0 .82-.21 1.616 1.616 0 0 0 .6-2.22zm28.97-6.22a1.656 1.656 0 0 0-2.244.59l-3.286 5.63a1.615 1.615 0 0 0 .6 2.22 1.725 1.725 0 0 0 .82.21 1.648 1.648 0 0 0 1.425-.81l3.285-5.62a1.616 1.616 0 0 0-.6-2.22zm17.25 33.73v-.16c0-.01 0-.04-.007-.05s-.007-.04-.01-.06 0-.04-.008-.05-.008-.03-.012-.05-.01-.04-.016-.06l-.014-.05-.013-.03a.425.425 0 0 0-.025-.07c-.006-.02-.013-.03-.02-.05l-.013-.03a.465.465 0 0 1-.033-.07.224.224 0 0 1-.027-.05v-.01l-9.844-17.2-.016-.03c-.027-.04-.057-.09-.089-.13a.12.12 0 0 1-.025-.04q-.061-.075-.132-.15-.067-.06-.144-.12l-.038-.03a4.73 4.73 0 0 0-.128-.09.081.081 0 0 0-.043-.02q-.083-.045-.174-.09a.656.656 0 0 0-.185-.06c-.017-.01-.035-.01-.052-.02l-.148-.03h-.052a1.329 1.329 0 0 0-.2-.02H544.5a1.409 1.409 0 0 0-.205.02h-.047l-.149.03c-.019.01-.037.01-.055.02a.983.983 0 0 0-.16.05.029.029 0 0 1-.026.01 5.27 5.27 0 0 0-.17.09.078.078 0 0 0-.041.02c-.044.03-.087.06-.127.09l-.04.03a.9.9 0 0 0-.131.11c0 .01-.011.01-.016.02a.72.72 0 0 0-.131.15l-.023.03c-.032.04-.062.09-.09.13l-.016.03-9.837 17.17-.02.03v.01c-.011.02-.02.04-.029.06a.326.326 0 0 0-.034.07.03.03 0 0 0-.01.02.239.239 0 0 1-.023.05c-.009.03-.017.05-.025.07l-.011.03a.234.234 0 0 1-.015.05c-.006.03-.012.05-.017.07l-.01.04c-.003.01 0 .03-.008.05s-.008.04-.011.06 0 .03-.006.05 0 .03 0 .04v.12a.016.016 0 0 1 0 .01v.19c0 .03.006.05.009.07s0 .03.008.04a.433.433 0 0 0 .01.05l.015.06a.2.2 0 0 0 .012.04c0 .02.01.04.016.06a.265.265 0 0 1 .019.05.158.158 0 0 0 .017.04.17.17 0 0 0 .021.05.2.2 0 0 0 .023.05c.008.02.015.03.023.05a.287.287 0 0 1 .025.05.138.138 0 0 1 .026.04c.01.02.02.03.031.05s.02.03.03.04.018.03.027.04.025.03.038.05a.16.16 0 0 1 .035.04.038.038 0 0 0 .02.02l33.063 36.58a.966.966 0 0 0 .129.12c.006.01.013.01.02.02a1.09 1.09 0 0 0 .148.11.179.179 0 0 1 .051.04c.048.03.1.05.148.08.014.01.027.01.041.02a1.356 1.356 0 0 0 .2.07c.016.01.032.01.048.02l.164.03a.135.135 0 0 0 .062.01 1.549 1.549 0 0 0 .217.02 1.577 1.577 0 0 0 .217-.02.129.129 0 0 0 .061-.01l.165-.03c.017-.01.033-.01.049-.02a1.4 1.4 0 0 0 .2-.07.078.078 0 0 1 .041-.02l.148-.09.051-.03c.051-.04.1-.07.147-.11a.04.04 0 0 1 .022-.02 1.133 1.133 0 0 0 .129-.13l32.652-36.57a.039.039 0 0 1 .016-.02.14.14 0 0 1 .033-.04.249.249 0 0 1 .04-.05.194.194 0 0 1 .027-.04c.01-.01.018-.03.027-.04a.308.308 0 0 1 .033-.05c.009-.02.018-.03.027-.05s.015-.03.022-.04.017-.03.025-.05.016-.03.024-.05.012-.03.019-.04.011-.03.017-.05l.02-.06.014-.04a.347.347 0 0 0 .013-.05l.015-.06a.248.248 0 0 1 .009-.04l.009-.06c0-.02.006-.04.008-.06a.235.235 0 0 0 0-.04v-.15a.015.015 0 0 0 .007-.01zm-13.956-15.57l-5.326 12.56-11.518-12.56h16.839zm-24.222 0l-11.408 12.58-5.427-12.58h16.835zm-19.529 2.03l5.146 11.93h-11.978zm-5.979 15.18h12.526l11.438 26.5zm29.379 30.78l-13.281-30.78h6.517a1.625 1.625 0 1 0 0-3.25h-5.357l11.935-13.16 12.062 13.16h-5.5a1.625 1.625 0 1 0 0 3.25h6.675zm5.389-4.31l11.227-26.47h12.409zm12.6-29.72l5.047-11.9 6.809 11.9h-11.853z" transform="translate(-533 -7466)"/></symbol><symbol viewBox="0 0 70.03 73" id="form" xmlns="http://www.w3.org/2000/svg"><defs><style>.dcls-1{fill-rule:evenodd;filter:url(#dfilter)}</style><filter id="dfilter" x="1318" y="7481" width="70.03" height="73" filterUnits="userSpaceOnUse"><feFlood result="flood" flood-color="#be6563"/><feComposite result="composite" operator="in" in2="SourceGraphic"/><feBlend result="blend" in2="SourceGraphic"/></filter></defs><path class="dcls-1" d="M23.14 47.15l-2.72 9.79h-7.69a1.77 1.77 0 1 0 0 3.54h9.03a1.548 1.548 0 0 0 .22-.01c.02 0 .04-.01.06-.01a1.364 1.364 0 0 0 .17-.04h.03l11.09-3.08a1.726 1.726 0 0 0 .78-.46l34.14-34.12a5.981 5.981 0 0 0 0-8.45l-2.07-2.07a5.975 5.975 0 0 0-8.45 0l-1.28 1.28V3.86A3.862 3.862 0 0 0 52.59 0H16.37a1.772 1.772 0 0 0-1.25.52L.52 15.11A1.772 1.772 0 0 0 0 16.36v52.78A3.862 3.862 0 0 0 3.86 73h48.73a3.862 3.862 0 0 0 3.86-3.86V44.59a1.77 1.77 0 1 0-3.54 0v24.55a.322.322 0 0 1-.32.32H3.86a.329.329 0 0 1-.32-.32V18.13h10.74a3.862 3.862 0 0 0 3.86-3.86V3.54h34.45a.329.329 0 0 1 .32.32v13.2L41.28 28.69H12.73a1.77 1.77 0 1 0 0 3.54h25L27.15 42.81H12.73a1.775 1.775 0 0 0 0 3.55H23.6l-.01.01a1.657 1.657 0 0 0-.45.78zM14.6 14.27a.322.322 0 0 1-.32.32H6.05l8.55-8.54v8.22zm45.64.47a2.449 2.449 0 0 1 1.71-.71 2.422 2.422 0 0 1 1.72.72l2.07 2.07a2.42 2.42 0 0 1 0 3.43l-2.21 2.21-5.51-5.5zm-4.72 4.72l5.5 5.51-28.16 28.16-5.51-5.51zM25.74 51.02l3.72 3.72-5.15 1.42z"/></symbol><symbol viewBox="0 0 83 83" id="forma" xmlns="http://www.w3.org/2000/svg"><defs><style>.ecls-1{fill-rule:evenodd;filter:url(#efilter)}</style><filter id="efilter" x="529" y="7754" width="83" height="83" filterUnits="userSpaceOnUse"><feFlood result="flood" flood-color="#be6563"/><feComposite result="composite" operator="in" in2="SourceGraphic"/><feBlend result="blend" in2="SourceGraphic"/></filter></defs><path id="eForma_1" data-name="Forma 1" class="ecls-1" d="M591.273 7774.73a1.621 1.621 0 1 0 0 2.29 1.628 1.628 0 0 0 0-2.29zm-48.132 48.13a1.62 1.62 0 1 0 0 2.29 1.626 1.626 0 0 0 0-2.29zm67.435-67.44a4.871 4.871 0 0 0-6.875 0l-7.845 7.85-2.292-2.29a1.608 1.608 0 0 0-2.292 0l-6.349 6.34-27.168 12.87-5.455-5.45a1.62 1.62 0 0 0-2.292 2.29l4.637 4.64-6.554 3.1a8.109 8.109 0 0 0-4.4 9.26l-4.608 2.18a1.624 1.624 0 0 0 .695 3.09 1.563 1.563 0 0 0 .692-.16l5.927-2.8 15.553-7.37 6.395 6.4-2.291 2.29a1.618 1.618 0 0 0 0 2.29 1.632 1.632 0 0 0 2.292 0l2.292-2.29 6.421 6.42-7.364 15.54v.02l-2.8 5.92a1.624 1.624 0 0 0 .771 2.16 1.7 1.7 0 0 0 .693.15 1.623 1.623 0 0 0 1.466-.92l2.184-4.62a7.888 7.888 0 0 0 1.922.24 8.114 8.114 0 0 0 7.337-4.63l3.1-6.56 4.612 4.61a1.62 1.62 0 0 0 2.292-2.29l-5.43-5.43 12.913-27.26 6.28-6.28a1.62 1.62 0 0 0 0-2.29l-2.292-2.3 7.844-7.84a4.874 4.874 0 0 0-.011-6.88zm-63.856 37.18a4.875 4.875 0 0 1 2.758-4.9l7.6-3.6 2.434 2.44zm13.469-9.97l20.7-9.81a9.721 9.721 0 0 0-.457 3.81l-17.807 8.43zm12.737 12.74l2.293-2.3a1.62 1.62 0 0 0-2.293-2.29l-2.292 2.29-5.576-5.57 16.184-7.67a9.725 9.725 0 0 0 4.959 4.94l-7.672 16.2zm5.4 21.18a4.835 4.835 0 0 1-4.895 2.75l6.06-12.79 2.434 2.44zm5.073-10.71l-2.434-2.44 8.446-17.83q.365.03.729.03a9.478 9.478 0 0 0 3.085-.51zm11.313-25.38a6.478 6.478 0 0 1-10.877-3.04 1.665 1.665 0 0 0-.081-.38 6.461 6.461 0 0 1 1.79-5.75l6.876-6.88 9.168 9.17zm13.574-20.45l-7.844 7.84-2.293-2.29 7.846-7.84a1.6 1.6 0 0 1 1.145-.48 1.62 1.62 0 0 1 1.144 2.77zm-65.143 7.84a1.626 1.626 0 0 0-2.292 0 40.6 40.6 0 0 0-5.317 50.75 1.631 1.631 0 0 0 1.36.73 1.589 1.589 0 0 0 .882-.26 1.619 1.619 0 0 0 .475-2.24 37.457 37.457 0 0 1 4.892-46.69 1.618 1.618 0 0 0-.002-2.29zm55.006 55.01a1.626 1.626 0 0 0-2.292 0 37.442 37.442 0 0 1-46.683 4.89 1.622 1.622 0 0 0-1.768 2.72 40.706 40.706 0 0 0 22.122 6.53c1.324 0 2.651-.07 3.975-.2a40.521 40.521 0 0 0 24.646-11.65 1.618 1.618 0 0 0-.002-2.29z" transform="translate(-529 -7754)"/></symbol><symbol viewBox="0 0 82 82" id="forma2" xmlns="http://www.w3.org/2000/svg"><defs><style>.fcls-1{fill-rule:evenodd;filter:url(#ffilter)}</style><filter id="ffilter" x="918" y="8054" width="82" height="82" filterUnits="userSpaceOnUse"><feFlood result="flood" flood-color="#be6563"/><feComposite result="composite" operator="in" in2="SourceGraphic"/><feBlend result="blend" in2="SourceGraphic"/></filter></defs><path id="fForma_1" data-name="Forma 1" class="fcls-1" d="M991.031 8060.89a1.6 1.6 0 1 0 1.6 1.6 1.6 1.6 0 0 0-1.6-1.6zm-9.609 0a1.6 1.6 0 1 0 1.6 1.6 1.6 1.6 0 0 0-1.6-1.6zm-9.61 0a1.6 1.6 0 1 0 1.6 1.6 1.6 1.6 0 0 0-1.6-1.6zm-9.609 42.6a1.6 1.6 0 1 0 1.6 1.6 1.6 1.6 0 0 0-1.603-1.6zm0 9.61a1.6 1.6 0 1 0 1.6 1.6 1.6 1.6 0 0 0-1.603-1.6zm0 9.61a1.6 1.6 0 1 0 1.6 1.6 1.6 1.6 0 0 0-1.603-1.6zM995.2 8054h-72.39a4.806 4.806 0 0 0-4.8 4.8v72.4a4.812 4.812 0 0 0 4.8 4.8h72.39a4.812 4.812 0 0 0 4.8-4.8v-72.4a4.806 4.806 0 0 0-4.8-4.8zm1.6 77.2a1.6 1.6 0 0 1-1.6 1.6h-72.39a1.6 1.6 0 0 1-1.6-1.6v-60.22h75.59v60.22zm0-63.43h-75.6v-8.97a1.6 1.6 0 0 1 1.6-1.6h72.4a1.6 1.6 0 0 1 1.6 1.6v8.97zm-8.969 9.61h-57.677c-.036 0-.072.01-.108.01h-.053c-.033.01-.066.01-.1.02a.131.131 0 0 0-.061.01.246.246 0 0 0-.082.02c-.024.01-.048.01-.072.02a.176.176 0 0 1-.068.02l-.078.03-.061.03a.3.3 0 0 1-.077.04.235.235 0 0 1-.063.04.248.248 0 0 1-.066.04l-.069.06-.052.03a.522.522 0 0 1-.073.07c-.013.01-.026.03-.039.04a.514.514 0 0 0-.07.08l-.032.03c-.021.03-.041.05-.06.08s-.023.03-.033.05-.031.05-.045.07-.025.05-.037.07-.021.04-.031.06-.026.06-.037.08-.014.04-.021.06a.74.74 0 0 0-.032.1.053.053 0 0 0-.006.01c0 .02-.006.03-.009.05s-.016.06-.022.09-.008.05-.011.08-.007.05-.01.07V8095a1.6 1.6 0 0 0 1.6 1.6h57.657a.792.792 0 0 0 .154-.01h.031c.038-.01.076-.01.114-.02a.084.084 0 0 0 .048-.01c.031-.01.062-.01.093-.02s.035-.01.053-.02l.091-.03c.015-.01.03-.01.045-.02l.122-.06a.1.1 0 0 1 .048-.02c.026-.02.052-.03.076-.05l.046-.03.075-.06.037-.03c.028-.02.054-.05.08-.07l.024-.03a1.624 1.624 0 0 0 .187-.22.034.034 0 0 1 .014-.02c.021-.04.041-.07.06-.1s.017-.03.025-.05.026-.05.038-.08l.026-.06.026-.07c.008-.02.016-.05.022-.07a.159.159 0 0 0 .007-.02.227.227 0 0 1 .01-.04l.021-.1c.006-.03.008-.05.011-.07l.01-.08c.003-.02 0-.07 0-.1v-16.06a1.6 1.6 0 0 0-1.599-1.6zm-56.055 16.02v-12.31l44.306 12.31h-44.309zm54.454-.51l-44.306-12.31h44.306v12.31zm-33.633 10.6h-22.569a.194.194 0 0 1-.075.01c-.026.01-.052.01-.078.02s-.054.01-.081.01a.191.191 0 0 1-.07.02l-.079.03c-.024.01-.047.01-.07.02l-.072.03a.27.27 0 0 1-.071.04l-.063.03c-.025.02-.049.03-.073.05s-.038.03-.058.04-.046.03-.068.05-.038.03-.057.05-.04.03-.059.05a.393.393 0 0 0-.061.07.146.146 0 0 0-.037.04s-.006 0-.009.01c-.021.02-.04.05-.059.07a.216.216 0 0 1-.038.05.674.674 0 0 1-.048.08l-.035.06c-.011.02-.024.05-.036.07a.59.59 0 0 1-.033.07c-.009.02-.017.05-.026.07s-.02.05-.028.08l-.018.06c-.006.02-.016.06-.022.09l-.01.06a1 1 0 0 0-.014.1v.06a.951.951 0 0 0 0 .1.016.016 0 0 0 0 .01v19.22a1.6 1.6 0 0 0 1.6 1.6h22.421a.937.937 0 0 0 .168-.01h.01a.807.807 0 0 0 .154-.03h.03a.6.6 0 0 0 .129-.04.1.1 0 0 0 .048-.02.407.407 0 0 0 .1-.04c.021-.01.04-.01.06-.02s.057-.03.085-.05a.212.212 0 0 0 .064-.04.3.3 0 0 0 .074-.05c.021-.01.041-.03.061-.04l.071-.06c.018-.02.036-.03.053-.05a.488.488 0 0 0 .076-.08l.03-.03a.081.081 0 0 0 .009-.01c.021-.03.039-.05.058-.08a.193.193 0 0 0 .039-.05.482.482 0 0 0 .048-.08.215.215 0 0 0 .035-.05c.013-.03.024-.05.036-.08s.023-.04.033-.06a.53.53 0 0 1 .026-.07c.009-.03.02-.06.028-.08a.4.4 0 0 0 .017-.07c.008-.03.016-.05.023-.08s.006-.04.01-.07.011-.06.014-.09 0-.04 0-.06v-19.33a1.6 1.6 0 0 0-1.596-1.6zm-20.821 19.22v-14.14l16.491 14.14h-16.494zm19.219-1.88l-16.495-14.14h16.491v14.14zm36.836-17.34h-19.222a1.6 1.6 0 1 0 0 3.2h19.219a1.6 1.6 0 1 0 0-3.2zm0 9.61h-19.222a1.6 1.6 0 1 0 0 3.2h19.219a1.6 1.6 0 1 0 0-3.2zm0 9.61h-19.222a1.6 1.6 0 1 0 0 3.2h19.219a1.6 1.6 0 1 0 0-3.2z" transform="translate(-918 -8054)"/></symbol></svg>