<?xml version="1.0" encoding="utf-8"?><svg xmlns="http://www.w3.org/2000/svg" xmlns:xlink="http://www.w3.org/1999/xlink"><symbol viewBox="0 0 381.39 381.39" id="adjust" xmlns="http://www.w3.org/2000/svg"><path d="M79.456 63.565V15.891C79.456 7.119 72.337 0 63.565 0S47.674 7.119 47.674 15.891v47.674c-17.544 0-31.782 14.239-31.782 31.782v31.782c0 17.544 14.239 31.782 31.782 31.782v206.586c0 8.74 7.119 15.891 15.891 15.891s15.891-7.151 15.891-15.891V158.912c17.544 0 31.782-14.239 31.782-31.782V95.347C111.239 77.804 97 63.565 79.456 63.565zm0 63.565H47.674V95.347h31.782v31.783zm127.13 95.347V15.891C206.586 7.119 199.435 0 190.695 0c-8.772 0-15.891 7.119-15.891 15.891v206.586c-17.544 0-31.782 14.239-31.782 31.782v31.782c0 17.544 14.239 31.782 31.782 31.782v47.674c0 8.74 7.119 15.891 15.891 15.891 8.74 0 15.891-7.151 15.891-15.891v-47.674c17.544 0 31.782-14.239 31.782-31.782V254.26c.001-17.544-14.238-31.783-31.782-31.783zm0 63.565h-31.782V254.26h31.782v31.782zm127.13-158.912V15.891C333.716 7.119 326.565 0 317.825 0s-15.891 7.119-15.891 15.891V127.13c-17.544 0-31.782 14.239-31.782 31.782v31.782c0 17.544 14.239 31.782 31.782 31.782v143.021c0 8.74 7.151 15.891 15.891 15.891s15.891-7.151 15.891-15.891v-143.02c17.544 0 31.783-14.239 31.783-31.782v-31.782c0-17.545-14.239-31.783-31.783-31.783zm0 63.565h-31.782v-31.782h31.782v31.782z"/></symbol><symbol viewBox="0 0 314.5 314.5" id="arrow" xmlns="http://www.w3.org/2000/svg"><path d="M314.5 90.5c0 6-2 13-7 18l-133 133c-5 5-10 7-17 7s-12-2-17-7l-133-133c-10-10-10-25 0-35s24-10 34 0l116 116 116-116c10-10 24-10 34 0 5 5 7 11 7 17z"/></symbol><symbol viewBox="0 0 202 67.488" id="cola" xmlns="http://www.w3.org/2000/svg"><path d="M168.12 56.832c-.003 0-.619.549-.619.549-.879.786-1.784 1.628-2.877 1.207-.301-.11-.514-.512-.565-.824-.05-2.25.964-4.336 1.947-6.366l.252-.531c2.827-4.72 6.113-10.282 10.939-14.142.813-.587 1.696-1.08 2.627-.695.214.2.464.548.464.896 0 .11-.098.402-.154.493-1.348 2.179-2.632 4.465-3.88 6.66-2.44 4.337-4.97 8.819-8.134 12.753zm-26.149-11.124c-.185.129-3.445-.97-4.075-3.988-.534-2.6 1.255-4.63 2.987-5.654.743-.585 1.863-.786 2.684-.495.762.513.969 1.429.969 2.415 0 .605-.08 1.227-.151 1.794l-.016.128a24.363 24.363 0 0 1-2.398 5.8zm-12.454 12.277c-.333-.494-.443-1.034-.454-1.618-.064-3.588 3.796-10.012 6.52-13.512h.007c1.142 2.5 3.727 4.107 5.288 4.784-1.939 4.318-8.587 13.566-11.36 10.346zm47.054.637c-.645.439-1.552.102-1.213-.904.844-2.562 4.201-7.782 4.201-7.782l9.349-16.582h-6.404c-.304.5-.955 1.648-.955 1.648-.297-.493-1.182-1.59-1.547-1.828-1.565-.989-3.86-.521-5.444.375-6.885 4.026-11.908 11.98-15.87 18.182 0 0-4.17 6.895-6.485 7.408-1.807.146-1.62-2.288-1.542-2.855.698-4.1 2.321-7.996 3.956-11.527a88.557 88.557 0 0 0 10.57-8.636c7.484-7.154 13.793-15.26 14.715-17.07 0 0-.998.2-2.177.237-5.758 8.032-17.54 19.706-21.113 21.443 1.583-3.806 11.807-21.974 20.508-30.664l1.37-1.318c2.116-2.067 4.31-4.19 6.02-4.537.18-.018.412 0 .613.421.077 1.61-.523 2.8-1.21 4.153l-.964 1.977s1.365-.257 2.261-.55c1.04-1.957 2.192-4.153 1.767-6.769-.141-.842-.75-1.482-1.547-1.629-2.595-.494-5.424 1.427-7.7 2.983l-.092.054c-11.7 9.167-21.58 22.377-30.218 40.417-.626.475-3.045 1.043-3.456.768.853-1.756 1.927-4.117 2.465-6.678.093-.732.179-1.482.179-2.214 0-1.574-.378-3.056-1.789-4.08-1.654-.824-3.698-.439-5.076.183-6.175 2.561-10.79 8.892-14.12 14.106-1.79 3.312-3.576 6.86-4.07 10.923-.349 3.183.36 5.232 2.17 6.257 1.861.95 4.204-.038 5.124-.513 6.255-3.293 10.626-9.898 14.071-15.936.137-.018 2.018-.072 3.44-.439.02 0 .028 0 .06.02-.082.273-.817 2.469-.817 2.469-2.184 6.403-3.194 10.758-1.131 13.338 2.947 3.641 7.826-.128 11.796-5.105-.852 5.964 2.239 6.898 4.595 6.44 2.707-.73 5.723-3.622 7.123-5.104-.45 1.738-.327 4.849 2.135 5.16 1.688.312 2.95-.606 4.412-1.393 5.242-2.855 11.518-12.366 13.147-15.116h-2.136c-2.316 3.5-5.263 8.09-8.97 10.268zM95.81 23.104h6l3.386-5.5h-6.001zm95.841-14.611c-4.575 2.598-9.317 4.281-15.058 3.696-1.591 1.793-3.14 3.641-4.568 5.544 8.057 2.049 16.6-2.507 21.363-6.842 5.04-4.373 7.624-9.88 7.624-9.88s-3.777 4.317-9.361 7.482zm-50.45-1.39c-.954 10.941-9.459 17.364-11.563 17.875-1.275.256-3.451-.311-1.509-4.903 2.861-6.185 7.745-11.435 12.985-14.125.128.458.124.75.087 1.153zm-16.572 27.572c-.61-1.317-2.056-2.159-3.597-2.067-5.006.457-9.902 4.574-12.473 10.483-1.35 3.038-2.085 5.544-2.568 9.533 1.556-1.793 4.731-4.738 8.334-6.349 0 0 .49-3.823 2.99-7.226.947-1.41 2.84-3.678 4.966-3.075 1.857.623 1.204 5.764-1.264 10.74-1.827 3.66-4.622 7.32-7.45 9.844-2.5 2.122-6.2 4.683-9.436 2.708-2.038-1.207-3.078-3.733-2.858-6.99.974-9.239 5.18-17.107 11.198-26.072 6.206-8.324 13.047-16.869 22.263-21.426 1.88-.95 3.62-1.17 5.125-.585 0 0-8.651 4.757-12.775 13.558-1.05 2.233-2.508 5.25-1.04 7.922.769 1.39 2.132 1.5 3.23 1.427 5.054-1.171 8.32-5.891 10.988-10.209 1.547-3.275 2.922-6.532 2.922-10.155 0-.439-.022-1.024-.06-1.464 2.415-1.28 7.367.988 7.367.988 3.87 1.281 12.11 7.594 14.89 8.801 1.355-1.573 3.583-3.951 4.838-5.14l-1.816-1.117c-2.908-1.775-5.981-3.458-9.006-5.123-6.87-3.75-12.462-2.433-15.308-1.409-1.119.403-2.141.75-2.141.75-2.112-2.305-5.576-2.086-8.128-1.463-9.178 2.634-17.7 9.056-26.836 20.199C100.267 30.485 96.1 38.024 93.88 45.47c-1.712 5.012-2.232 12.386 1.946 16.759 3.552 3.713 8.263 2.908 11.589 1.573 7.207-3.55 13.684-11.198 16.912-19.998.779-2.616 1.643-6.312.302-9.13zm-79.885-8.489a888.64 888.64 0 0 1-1.224 2.817c-.175.147-.452.074-.77 0l-.544-.092c-1.708-.53-2.997-1.664-3.394-3.018-.548-2.635 1.703-4.702 2.695-5.452.951-.66 2.43-1.007 3.29-.33.53.623.73 1.427.73 2.306 0 1.19-.367 2.525-.783 3.77zm-2.603 5.287s-.055.165-.083.22c-.007 0-2.755 4.481-2.755 4.481-1.658 2.215-3.729 4.996-6.317 6.331-.768.257-1.828.422-2.369-.255-1.145-1.372-.555-3.275-.075-4.812l.17-.549c1.375-3.732 3.558-7.026 5.682-10.082a.279.279 0 0 1 .107-.036c.005.018.014.018.017.055 1.333 2.561 3.833 3.75 5.702 4.3.012 0 .024.018.024.055 0 .054-.03.128-.103.292zm34.376-2.945c1.229-1.701 4.807-6.257 5.679-7.026 2.933-2.58 4.106-1.445 4.207-.64a578.724 578.724 0 0 1-9.007 15.57c.006-.019-.95 1.445-.95 1.445-1.342 2.048-2.693 3.805-4.897 5.03-.314.093-.832.13-1.177-.128-.415-.274-.579-.732-.532-1.208.132-1.573 1.734-6.384 6.676-13.044zM46.052 17.404c-3.793-2.488-11.415 2.269-17.52 10.428-5.583 7.319-7.994 15.826-5.37 19.76 3.902 4.629 11.147-2.104 14.228-5.708l.398-.421c2.095-2.25 3.714-4.959 5.28-7.557 0 0 1.44-2.379 1.51-2.489a33.99 33.99 0 0 0 3.17-.768c-.018.055-4.622 7.794-4.153 11.636.147 1.172.035 5.454 4.215 6.752 5.57.934 10.02-3.384 13.944-7.227 0 0 .669-.64 1.047-1.005-.096.384-.22.895-.22.895-1.632 5.672.567 6.862 1.942 7.301 4.156 1.208 9.122-4.83 9.138-4.83-.129 1.902-.506 3.476 1.5 4.738 1.892.678 3.807-.355 5.263-1.325 5.244-3.696 9.468-9.48 12.88-14.48h-2.177c-.025 0-5.37 7.747-8.841 9.43-.005 0-.637.325-1.001.069-.45-.385-.273-1.184.005-1.75.017-.037 13.401-23.249 13.401-23.249h-6.319s-.69 1.117-.747 1.19c-.042-.036-.143-.228-.214-.32-3.915-5.416-12.78 2.914-19.456 12.574-2.57 3.714-5.841 7.896-9.234 10.916 0 0-5.025 4.607-7.173 1.297-.785-1.391-.543-3.424-.1-4.76 2.5-7.117 6.808-13.576 11.71-17.474 1.385-1.078 2.889-1.39 3.635-.933.712.422.826 1.464.376 2.177-1.141-.036-2.056.31-2.8 1.08-1.465 1.536-1.974 3.019-1.508 4.41 2.263 3.22 6.775-3.148 6.557-7.027-.078-1.39-.82-2.707-1.927-3.348-1.65-.988-4.168-.732-5.797.055-2.181.823-5.634 3.695-7.649 5.928-2.537 2.8-6.888 5.91-8.249 5.561.446-1.19 4.121-8.709.255-11.526zm31.762 40.709c-7.442-4.794-17.542-5.635-33.83-1.116-17.364 4.08-23.154 6.696-30.757 1.445-2.921-2.58-3.969-6.733-3.187-12.715 1.814-9.753 6.716-19.138 15.422-29.548 4.86-5.416 9.368-10.063 15.32-11.93 4.562-1.17 4.136 2.415 3.584 2.928-.583 0-1.561.092-2.317.585-.614.476-2.299 2.013-2.39 4.08-.13 3.166 3.146 2.507 4.558.77 1.523-1.959 3.774-5.71 2.003-9.204-.742-1.244-2.024-2.104-3.615-2.397-5.45-.311-10.527 2.287-15.212 5.16C17.15 13.288 8.953 23.15 4.317 33.945 1.643 40.458-.775 49.788 2.849 57.382c2.804 5.269 8.625 8.067 15.57 7.482 4.871-.512 10.76-2.086 14.722-3.036 3.962-.952 24.238-7.923 30.901 4.209 0 0 2.216-4.301 7.753-4.393 4.552-.42 11.119 1.318 15.9 4.83-1.593-2.396-6.11-5.927-9.878-8.36z"/></symbol><symbol viewBox="0 0 508.52 508.52" id="dribbble" xmlns="http://www.w3.org/2000/svg"><path d="M254.26 0C113.845 0 0 113.845 0 254.26s113.845 254.26 254.26 254.26 254.26-113.845 254.26-254.26C508.52 113.813 394.675 0 254.26 0zm0 444.51c-104.914 0-190.282-85.368-190.282-190.25S149.346 63.978 254.26 63.978s190.25 85.368 190.25 190.282-85.336 190.25-190.25 190.25z"/><path d="M313.471 273.393c21.294 58.416 29.907 105.963 31.592 115.879 36.423-24.663 62.389-63.724 69.635-108.982-5.499-1.748-50.248-15.097-101.227-6.897zm-31.465 7.882c-91.661 31.91-124.587 95.538-127.511 101.481 27.555 21.485 62.198 34.293 99.765 34.293 22.534.032 44.019-4.577 63.501-12.904-2.415-14.239-11.855-63.978-34.675-123.252l-1.08.382zm18.052-41.921l3.464 8.391c54.094-6.801 107.838 4.1 113.177 5.244-.318-38.361-14.016-73.608-36.645-101.259-3.369 4.608-30.638 39.537-90.771 64.073a505.22 505.22 0 0 1 10.775 23.551zm-34.452 16.559l6.42-1.907c-4.1-9.249-8.549-18.497-13.19-27.587-81.172 24.282-159.961 23.265-167.08 23.106l-.064 4.958c.032 41.73 15.828 79.869 41.794 108.696 3.687-6.294 48.278-80.188 132.12-107.266zm-20.182-54.507c-26.952-47.896-55.969-88.133-60.26-94.013-45.481 21.453-79.488 63.374-90.008 113.813 7.279.095 74.245.381 150.268-19.8zm116.61-68.492c-28.763-25.458-66.457-40.968-107.774-40.968-13.094 0-25.871 1.557-38.075 4.513 4.481 6.039 34.007 46.243 60.641 95.157 57.812-21.643 82.252-54.538 85.208-58.702z"/></symbol><symbol viewBox="0 0 557.5 212.5" id="dropbox" xmlns="http://www.w3.org/2000/svg"><defs><clipPath id="ea"><path d="M0 170h446V0H0v170z"/></clipPath></defs><path d="M95.145 48.777L58.108 72.959l25.609 20.508 37.343-23.059-25.915-21.631z"/><path d="M58.108 113.975l37.037 24.183 25.915-21.633-37.343-23.059-25.61 20.51zm62.952 2.55l25.917 21.633 37.036-24.183-25.609-20.509-37.343 23.06zm62.954-43.566l-37.037-24.183-25.916 21.632 37.344 23.058 25.609-20.507z"/><path d="M121.136 121.18l-25.99 21.567-11.122-7.262v8.142l37.113 22.256 37.113-22.256v-8.141l-11.12 7.26-25.994-21.567z"/><g clip-path="url(#ea)" transform="matrix(1.25 0 0 -1.25 0 212.5)"><path d="M173.727 102.635h1.955c4.619 0 10.96-.547 10.96-16.562 0-17.032-6.418-17.58-10.96-17.58h-1.955v34.142zm-11.43-43.126h13.699c3.992 0 9.627 0 14.248 3.594 5.636 4.297 8.533 13.047 8.533 22.814 0 25.626-16.206 25.704-24.191 25.704h-12.29V59.509zm40.415 38.517V59.509h10.723v16.64c0 2.97 0 11.877 7.905 11.877.393 0 .86 0 1.799-.157v10.469c-.546.157-1.092.236-1.878.236-6.261 0-8.14-6.564-9.08-9.845v9.297h-9.47zm37.621-6.641c3.29 0 4.541-2.656 4.541-12.58 0-10.312-1.409-12.578-4.541-12.578-3.209 0-4.617 2.345-4.617 12.579 0 9.453 1.096 12.579 4.54 12.579h.077zm0 7.5c-11.506 0-15.732-8.047-15.732-20.08 0-12.421 4.538-20.077 15.655-20.077 11.272 0 15.734 7.734 15.734 20.078 0 12.032-4.226 20.08-15.657 20.08m29.407-16.329c0 3.437 0 8.905 4.852 8.905 4.15 0 4.461-5.39 4.461-12.187 0-8.126-.389-12.891-4.775-12.891-4.539 0-4.539 3.282-4.539 8.829v7.344zm-10.57 15.469V46.46h10.568v15.86c1.174-1.25 3.131-3.357 7.358-3.357 12.29 0 13.074 14.844 13.074 20.312 0 6.485-1.252 12.502-5.01 16.329-1.878 1.875-4.776 2.97-7.359 2.97-5.245 0-7.359-3.828-8.69-6.33v5.782h-9.94zm44.762-13.595c0 1.953 0 3.906 1.255 5.392.782 1.015 2.034 1.64 3.443 1.64 3.053 0 4.697-2.579 4.697-12.735 0-9.923-1.486-12.578-4.854-12.578-4.541 0-4.541 5-4.541 9.376v8.905zm-10.568 27.19V59.508h6.34c.862 2.734 1.254 3.515 2.038 5 .937-1.953 2.739-5.78 8.924-5.78 2.036 0 4.149.39 6.262 1.482 7.046 3.672 7.516 15.236 7.516 18.83 0 9.296-2.975 19.533-12.45 19.533-4.617 0-6.728-2.502-8.062-4.143v17.19h-10.568zm49.508-20.236c3.285 0 4.54-2.656 4.54-12.58 0-10.312-1.409-12.578-4.54-12.578-3.21 0-4.622 2.345-4.622 12.579 0 9.453 1.098 12.579 4.543 12.579h.08zm0 7.5c-11.509 0-15.736-8.047-15.736-20.08 0-12.421 4.542-20.077 15.657-20.077 11.272 0 15.734 7.734 15.734 20.078 0 12.032-4.228 20.08-15.655 20.08"/><path d="M358.11 98.026l9.943-18.83-11.428-19.687h9.313l6.498 11.56 5.636-11.56h11.664l-11.508 21.563 9.941 16.954h-9.313l-4.933-8.906-4.148 8.906H358.11z"/></g></symbol><symbol viewBox="0 0 512 512" id="heart" xmlns="http://www.w3.org/2000/svg"><path d="M374 39.221c-42.59 0-79.926 18.991-107.971 54.921A181.741 181.741 0 0 0 256 108.371a181.553 181.553 0 0 0-10.029-14.229C217.926 58.212 180.59 39.221 138 39.221c-80.456 0-138 67.367-138 148.204 0 92.433 75.757 179.547 245.637 282.46 3.185 1.929 6.774 2.894 10.363 2.894s7.178-.964 10.363-2.893C436.243 366.973 512 279.859 512 187.426c0-80.795-57.497-148.205-138-148.205zm45.157 263.299C383.79 341.982 330.345 383.534 256 429.343c-74.345-45.809-127.79-87.361-163.157-126.822C57.285 262.845 40 225.197 40 187.426c0-58.204 39.334-108.205 98-108.205 29.876 0 55.35 12.99 75.715 38.61 16.284 20.489 23.145 41.646 23.193 41.797a20 20 0 0 0 38.186 0c.063-.202 6.718-20.699 22.467-40.875C318.036 92.521 343.754 79.22 374 79.22c58.728 0 98 50.049 98 108.205 0 37.771-17.285 75.419-52.843 115.095z"/></symbol><symbol viewBox="0 0 300 198.513" id="intel" xmlns="http://www.w3.org/2000/svg"><path d="M88.799 84.354v48.122h-15.32V71.989l31.626.03c13.433 0 18.009 9.473 18.009 18.078v42.379h-15.291v-42.3c0-3.604-1.866-5.822-6.366-5.822H88.799zm104.164-.723c-5.236 0-9.288 2.692-10.98 6.346-1.004 2.194-1.348 3.875-1.466 6.561h23.567c-.303-6.561-3.278-12.907-11.121-12.907m-12.446 23.333c0 7.835 4.87 13.602 13.567 13.602 6.766 0 10.129-1.875 14.041-5.767l9.461 9.034c-6.058 5.98-12.415 9.613-23.615 9.613-14.664 0-28.697-7.996-28.697-31.3 0-19.91 12.252-31.183 28.353-31.183 16.32 0 25.748 13.197 25.748 30.483v5.518h-38.858M152.343 132.4c-12.48 0-17.775-8.687-17.775-17.267V55.508h15.295v16.48h11.53v12.366h-11.53v29.82c0 3.514 1.66 5.465 5.308 5.465h6.222V132.4h-9.05M59.85 63.63H44.426V48.978H59.85V63.63zm.039 69.482c-11.55-1.11-15.48-8.116-15.48-16.2l.018-44.923h15.462v61.123zm183.829-1.293c-11.526-1.111-15.437-8.106-15.437-16.18V46.894h15.437v84.927zm53.965-74.99C283.693-11.377 151.297-15.695 65.96 36.256v5.736C151.21-1.82 272.117-1.561 283.133 61.259c3.685 20.772-8.02 42.429-28.925 54.877v16.286c25.162-9.205 50.967-39.055 43.475-75.594M142.559 176.16c-58.897 5.445-120.27-3.104-128.858-49.127-4.204-22.687 6.132-46.737 19.843-61.676v-7.988C8.86 79.013-4.535 106.414 3.177 138.792c9.843 41.518 62.517 65.047 142.916 57.233 31.81-3.104 73.444-13.333 102.389-29.22v-22.569c-26.264 15.64-69.726 28.573-105.923 31.924"/><path d="M261.562 51.458c0-.748-.437-.986-1.436-.986h-.965v2.118c.14 0 .841.026.965.026.999 0 1.436-.334 1.436-1.034v-.124zm1.504 5.253h-1.143a.272.272 0 0 1-.238-.152l-1.56-2.643c-.027-.054-.162-.118-.215-.118h-.7v2.621c0 .14-.097.292-.281.292h-1.034c-.13 0-.258-.152-.258-.292v-6.631c0-.384.149-.544.473-.594.365-.048 1.357-.08 1.892-.08 1.899 0 3.048.56 3.048 2.344v.124c0 1.104-.55 1.687-1.402 1.972l1.617 2.734c.01.056.048.131.048.196 0 .107-.064.227-.247.227m-2.714-8.794c-2.813 0-5.088 2.322-5.088 5.12a5.09 5.09 0 0 0 5.088 5.086c2.799 0 5.096-2.286 5.096-5.087 0-2.797-2.297-5.12-5.096-5.12m0 11.261a6.133 6.133 0 0 1-6.145-6.14 6.138 6.138 0 0 1 6.145-6.144c3.381 0 6.16 2.766 6.16 6.143 0 3.383-2.779 6.141-6.16 6.141"/></symbol><symbol viewBox="0 0 467.211 467.211" id="laptop" xmlns="http://www.w3.org/2000/svg"><path d="M413.917 96.775H53.295c-6.369 0-11.551 5.181-11.551 11.55v213.182c0 6.369 5.182 11.55 11.551 11.55h360.622c6.368 0 11.55-5.181 11.55-11.55V108.326c0-6.369-5.182-11.551-11.55-11.551zm1.55 224.732c0 .855-.695 1.55-1.55 1.55H53.295a1.553 1.553 0 0 1-1.551-1.55V108.326c0-.855.695-1.55 1.551-1.55h360.622c.854 0 1.55.696 1.55 1.55v213.181z"/><path d="M459.711 340.558h-11.744V102.843c0-15.752-12.815-28.568-28.568-28.568H47.813c-15.753 0-28.568 12.815-28.568 28.568v237.714H7.5a7.5 7.5 0 0 0-7.5 7.5v20.605c0 13.384 10.889 24.272 24.272 24.272h418.666c13.384 0 24.272-10.889 24.272-24.272v-20.605a7.498 7.498 0 0 0-7.499-7.499zM34.244 102.843c0-7.481 6.087-13.568 13.568-13.568h371.586c7.481 0 13.568 6.086 13.568 13.568v237.714H34.244V102.843zm177.361 252.715h44v3.922a3.188 3.188 0 0 1-3.184 3.184h-37.633a3.187 3.187 0 0 1-3.184-3.184v-3.922zm240.607 13.105c0 5.113-4.159 9.272-9.272 9.272H24.273c-5.113 0-9.272-4.16-9.272-9.272v-13.105h186.605v3.922c0 7.27 5.914 13.184 13.184 13.184h37.633c7.27 0 13.184-5.914 13.184-13.184v-3.922h186.605v13.105z"/></symbol><symbol viewBox="0 0 486.392 486.392" id="linkedin" xmlns="http://www.w3.org/2000/svg"><path d="M243.196 0C108.891 0 0 108.891 0 243.196s108.891 243.196 243.196 243.196 243.196-108.891 243.196-243.196C486.392 108.861 377.501 0 243.196 0zm-60.799 360.994h-60.799V148.197h60.799v212.797zm-28.515-225.838c-15.747 0-28.484-12.768-28.484-28.515s12.768-28.515 28.484-28.515c15.747.03 28.515 12.798 28.515 28.515 0 15.747-12.768 28.515-28.515 28.515zm241.311 225.838h-60.799V229.425c0-15.413-4.408-26.204-23.347-26.204-31.403 0-37.452 26.204-37.452 26.204v131.569h-60.799V148.197h60.799v20.337c8.694-6.657 30.399-20.307 60.799-20.307 19.699 0 60.799 11.795 60.799 83.051v129.716z"/></symbol><symbol viewBox="0 0 511.626 511.626" id="mail" xmlns="http://www.w3.org/2000/svg"><path d="M49.106 178.729c6.472 4.567 25.981 18.131 58.528 40.685 32.548 22.554 57.482 39.92 74.803 52.099 1.903 1.335 5.946 4.237 12.131 8.71 6.186 4.476 11.326 8.093 15.416 10.852 4.093 2.758 9.041 5.852 14.849 9.277 5.806 3.422 11.279 5.996 16.418 7.7 5.14 1.718 9.898 2.569 14.275 2.569h.575c4.377 0 9.137-.852 14.277-2.569 5.137-1.704 10.615-4.281 16.416-7.7 5.804-3.429 10.752-6.52 14.845-9.277 4.093-2.759 9.229-6.376 15.417-10.852 6.184-4.477 10.232-7.375 12.135-8.71 17.508-12.179 62.051-43.11 133.615-92.79 13.894-9.703 25.502-21.411 34.827-35.116 9.332-13.699 13.993-28.07 13.993-43.105 0-12.564-4.523-23.319-13.565-32.264-9.041-8.947-19.749-13.418-32.117-13.418H45.679c-14.655 0-25.933 4.948-33.832 14.844C3.949 79.562 0 91.934 0 106.779c0 11.991 5.236 24.985 15.703 38.974 10.466 13.99 21.604 24.983 33.403 32.976z"/><path d="M483.072 209.275c-62.424 42.251-109.824 75.087-142.177 98.501-10.849 7.991-19.65 14.229-26.409 18.699-6.759 4.473-15.748 9.041-26.98 13.702-11.228 4.668-21.692 6.995-31.401 6.995h-.578c-9.707 0-20.177-2.327-31.405-6.995-11.228-4.661-20.223-9.229-26.98-13.702-6.755-4.47-15.559-10.708-26.407-18.699-25.697-18.842-72.995-51.68-141.896-98.501C17.987 202.047 8.375 193.762 0 184.437v226.685c0 12.57 4.471 23.319 13.418 32.265 8.945 8.949 19.701 13.422 32.264 13.422h420.266c12.56 0 23.315-4.473 32.261-13.422 8.949-8.949 13.418-19.694 13.418-32.265V184.437c-8.186 9.132-17.7 17.417-28.555 24.838z"/></symbol><symbol viewBox="0 0 55 55" id="map" xmlns="http://www.w3.org/2000/svg"><path d="M.416 2.189a.993.993 0 0 1 .901-.137l17.73 5.91 16.724-3.935c.042-.01.083.004.125 0 .107-.011.214-.025.321-.002l18 4a1 1 0 0 1 .783.976v43a.999.999 0 0 1-1.217.977l-17.807-3.957-16.802 2.965a1.004 1.004 0 0 1-.526-.05c-.003-.001-.007 0-.01-.002l-18-7A1.003 1.003 0 0 1 0 44.001v-41a1 1 0 0 1 .416-.812zM53 9.802L37 6.247v40.951l16 3.556V9.802zM35 6.263L20 9.792v40.016l15-2.646V6.263zM2 43.317l16 6.222V9.721L2 4.388v38.929z" data-original="#000000" class="kactive-path" data-old_color="#FBFAFA"/></symbol><symbol viewBox="0 0 512 512" id="menu" xmlns="http://www.w3.org/2000/svg"><path d="M491.318 235.318H20.682C9.26 235.318 0 244.577 0 256s9.26 20.682 20.682 20.682h470.636c11.423 0 20.682-9.259 20.682-20.682 0-11.422-9.259-20.682-20.682-20.682zm0-156.879H20.682C9.26 78.439 0 87.699 0 99.121c0 11.422 9.26 20.682 20.682 20.682h470.636c11.423 0 20.682-9.26 20.682-20.682 0-11.422-9.259-20.682-20.682-20.682zm0 313.758H20.682C9.26 392.197 0 401.456 0 412.879s9.26 20.682 20.682 20.682h470.636c11.423 0 20.682-9.259 20.682-20.682s-9.259-20.682-20.682-20.682z"/></symbol><symbol viewBox="0 0 512 512" id="twitter" xmlns="http://www.w3.org/2000/svg"><path d="M256 0C114.615 0 0 114.615 0 256s114.615 256 256 256 256-114.615 256-256S397.385 0 256 0zm147.121 180.544c.146 3.254.221 6.528.221 9.819 0 100.311-76.354 215.982-215.979 215.982-42.868 0-82.768-12.568-116.363-34.106a154.197 154.197 0 0 0 18.108 1.062c35.565 0 68.295-12.138 94.275-32.496-33.217-.611-61.25-22.562-70.912-52.717a75.977 75.977 0 0 0 14.283 1.361 76.05 76.05 0 0 0 19.999-2.662c-34.726-6.977-60.893-37.656-60.893-74.434 0-.32 0-.639.008-.955a75.61 75.61 0 0 0 34.382 9.494c-20.37-13.611-33.77-36.846-33.77-63.184 0-13.911 3.744-26.952 10.278-38.162 37.439 45.927 93.374 76.146 156.462 79.314a76.238 76.238 0 0 1-1.965-17.302c0-41.92 33.99-75.906 75.909-75.906 21.832 0 41.562 9.218 55.408 23.97a152.024 152.024 0 0 0 48.207-18.42c-5.668 17.727-17.705 32.603-33.377 41.997 15.355-1.834 29.984-5.916 43.598-11.952-10.176 15.224-23.045 28.593-37.879 39.297z"/></symbol><symbol viewBox="0 0 508.52 508.52" id="vimeo" xmlns="http://www.w3.org/2000/svg"><path d="M254.26 0C113.845 0 0 113.845 0 254.26s113.845 254.26 254.26 254.26 254.26-113.845 254.26-254.26C508.52 113.813 394.675 0 254.26 0zm151.03 185.069c-17.067 96.047-112.319 177.378-140.955 195.939-28.668 18.561-54.793-7.437-64.296-27.142-10.838-22.375-43.351-144.038-51.869-154.113-8.518-10.075-34.071 10.075-34.071 10.075l-12.395-16.241s51.901-61.944 91.375-69.731c41.858-8.232 41.794 64.296 51.869 104.533 9.757 38.934 16.273 61.181 24.79 61.181 8.518 0 24.822-21.676 42.589-54.952 17.862-33.308-.763-62.739-35.628-41.826 13.984-83.619 145.627-103.737 128.591-7.723z"/></symbol></svg>